<svg xmlns="http://www.w3.org/2000/svg" xmlns:xlink="http://www.w3.org/1999/xlink" viewBox="0 0 100 100"><defs><style>.cls-1{fill:url(#radial-gradient);}.cls-2{opacity:0.4;}.cls-3{fill:#fff;}.cls-4{opacity:0.8;}.cls-5{opacity:0.6;}</style><radialGradient id="radial-gradient" cx="50" cy="-29.63" r="116.67" gradientUnits="userSpaceOnUse"><stop offset="0" stop-color="#cae0ee"/><stop offset="0.02" stop-color="#b0d7eb"/><stop offset="0.07" stop-color="#7bc4e5"/><stop offset="0.12" stop-color="#4fb4df"/><stop offset="0.17" stop-color="#2da8db"/><stop offset="0.22" stop-color="#149fd8"/><stop offset="0.26" stop-color="#059ad7"/><stop offset="0.29" stop-color="#0098d6"/><stop offset="0.65" stop-color="#006e99"/><stop offset="0.91" stop-color="#003e69"/><stop offset="1" stop-color="#002b57"/></radialGradient></defs><title>logo_2</title><g id="Слой_2" data-name="Слой 2"><g id="Слой_1-2" data-name="Слой 1"><circle class="cls-1" cx="50" cy="50" r="50"/><g class="cls-2"><path class="cls-3" d="M56.82,38.64v-15a27.47,27.47,0,0,0-13.64,0V38.64Z"/></g><g class="cls-2"><path class="cls-3" d="M43.18,61.36v15a27.47,27.47,0,0,0,13.64,0v-15Z"/></g><g class="cls-4"><rect class="cls-3" x="43.18" y="43.18" width="13.64" height="13.64"/></g><g class="cls-5"><path class="cls-3" d="M81.82,50a32,32,0,0,1-.74,6.82H95a46.76,46.76,0,0,0,0-13.64H81.08A32,32,0,0,1,81.82,50Z"/></g><g class="cls-4"><path class="cls-3" d="M18.18,50a32,32,0,0,1,.74-6.82H5.05a46.76,46.76,0,0,0,0,13.64H18.92A32,32,0,0,1,18.18,50Z"/></g><path class="cls-3" d="M43.18,5.05V18.92a31.8,31.8,0,0,1,13.64,0V5.05a46.76,46.76,0,0,0-13.64,0Z"/><path class="cls-3" d="M56.82,95V81.08a31.8,31.8,0,0,1-13.64,0V95a46.76,46.76,0,0,0,13.64,0Z"/><path class="cls-3" d="M20.27,38.64A32,32,0,0,1,38.64,20.27V6A45.51,45.51,0,0,0,6,38.64Z"/><path class="cls-3" d="M61.36,20.27A32,32,0,0,1,79.73,38.64H94A45.51,45.51,0,0,0,61.36,6Z"/><path class="cls-3" d="M38.64,79.73A32,32,0,0,1,20.27,61.36H6A45.51,45.51,0,0,0,38.64,94Z"/><g class="cls-4"><path class="cls-3" d="M79.73,61.36A32,32,0,0,1,61.36,79.73V94A45.51,45.51,0,0,0,94,61.36Z"/></g><g class="cls-2"><path class="cls-3" d="M22.73,50a27.41,27.41,0,0,0,.86,6.82H38.64V43.18h-15A27.41,27.41,0,0,0,22.73,50Z"/></g><g class="cls-2"><path class="cls-3" d="M61.36,56.82h15a27.47,27.47,0,0,0,0-13.64h-15Z"/></g></g></g></svg>